<svg width="61" height="23" viewBox="0 0 61 23" fill="none" xmlns="http://www.w3.org/2000/svg">
<path fill-rule="evenodd" clip-rule="evenodd" d="M18.8603 17.5696C18.9933 17.8795 19.1502 18.1801 19.3308 18.4714C20.0063 19.5619 20.9082 20.421 22.0373 21.0483C23.1606 21.6724 24.4126 21.9885 25.7952 21.9885H25.9487C27.3493 21.9885 28.6096 21.672 29.7321 21.0483C30.4255 20.6631 31.0333 20.1903 31.5557 19.6302C31.712 20.1421 31.9978 20.6028 32.4138 21.0118C33.0778 21.6642 33.8684 21.9885 34.7841 21.9885H36.1145C37.0582 21.9885 37.8508 21.6571 38.4954 21.0011C39.1378 20.3473 39.459 19.5615 39.459 18.6438C39.459 18.3143 39.3327 18.0832 39.1679 17.9185C39.0031 17.7536 38.7721 17.6273 38.4425 17.6273C38.113 17.6273 37.882 17.7536 37.7172 17.9185C37.5524 18.0832 37.426 18.3143 37.426 18.6438C37.426 19.0058 37.2994 19.3162 37.0459 19.5748C36.7948 19.831 36.4833 19.9555 36.1145 19.9555H34.7841C34.4105 19.9555 34.0931 19.8281 33.8337 19.5686C33.5766 19.3116 33.4468 19.0037 33.4468 18.6438V15.2929C33.4579 15.1242 33.4634 14.9535 33.4634 14.7806V14.5248C33.4634 14.3454 33.4579 14.1686 33.4468 13.9946V11.1989C33.4468 10.8259 33.5848 10.5001 33.8511 10.2177C34.1063 9.94725 34.4167 9.81047 34.7841 9.81047H36.0121C36.3857 9.81047 36.703 9.93787 36.9625 10.1973C37.2265 10.4614 37.3493 10.7976 37.3493 11.1989V12.0687C37.3493 12.3983 37.4756 12.6293 37.6405 12.7941C37.8052 12.9589 38.0363 13.0852 38.3658 13.0852C38.6954 13.0852 38.9265 12.9589 39.0912 12.7941C39.2478 12.6374 39.3692 12.4209 39.3814 12.1173C39.4238 11.6635 39.562 11.2407 39.7966 10.8498C40.0291 10.4622 40.3543 10.1511 40.7677 9.91209C41.1916 9.667 41.6973 9.5547 42.2802 9.5547C42.8718 9.5547 43.393 9.68846 43.84 9.97109C44.2896 10.2553 44.6383 10.6435 44.8896 11.1326C45.1526 11.6448 45.2803 12.2133 45.2803 12.8363V18.6694C45.2803 19.0246 45.1534 19.3265 44.8997 19.5753C44.6388 19.8311 44.3189 19.9555 43.9431 19.9555C43.6276 19.9555 43.4049 20.0664 43.2472 20.2015C43.0431 20.3765 42.901 20.6221 42.901 20.972C42.901 21.3218 43.0431 21.5674 43.2472 21.7423C43.4049 21.8775 43.6276 21.9885 43.9431 21.9885C44.8808 21.9885 45.6742 21.6651 46.326 21.0247C46.7558 20.6025 47.0452 20.1213 47.1944 19.5809C47.7503 20.2078 48.4164 20.7224 49.1932 21.1244C50.3292 21.7122 51.622 22.0123 53.0746 22.0123C54.7122 22.0123 56.1271 21.7034 57.323 21.1038C58.6094 20.4589 59.4957 19.4364 59.9769 18.0316C60.0542 17.8392 60.0817 17.6022 59.9902 17.3227C59.8594 16.9231 59.5767 16.6539 59.0535 16.6539C58.6543 16.6539 58.3371 16.8292 58.1376 17.2357C58.1197 17.2721 58.1043 17.3097 58.0917 17.3482C57.7994 18.2416 57.2388 18.8921 56.408 19.2982C55.4668 19.7582 54.3545 19.9795 53.0746 19.9795C51.9799 19.9795 50.9985 19.7629 50.1331 19.3186C49.2988 18.8901 48.6419 18.2811 48.1641 17.4897C47.6802 16.6879 47.4475 15.7405 47.4475 14.6519C47.4475 13.6656 47.672 12.7669 48.1273 11.9573C48.5802 11.1522 49.2216 10.5099 50.0481 10.0269C50.8887 9.53571 51.8737 9.29871 52.9993 9.29871H53.3761C54.4653 9.29871 55.3687 9.50389 56.0781 9.94898C56.7705 10.3834 57.2952 10.9318 57.6449 11.6012C57.9834 12.2492 58.1621 12.9096 58.1735 13.5843H52.0697C51.7569 13.5843 51.5358 13.696 51.3794 13.8326C51.1795 14.007 51.0397 14.2518 51.0397 14.6007C51.0397 14.9496 51.1795 15.1943 51.3794 15.3688C51.5358 15.5054 51.7569 15.6172 52.0697 15.6172H58.2245C58.756 15.6172 59.2139 15.4299 59.5978 15.0541C59.9885 14.6715 60.1841 14.205 60.1841 13.6542C60.1841 12.6295 59.9314 11.6284 59.4186 10.653C58.9063 9.67865 58.1466 8.86775 57.1317 8.22805C56.1311 7.5972 54.8819 7.26581 53.3761 7.26581H52.9993C51.4971 7.26581 50.18 7.60345 49.0439 8.26311C48.1094 8.80583 47.3484 9.49968 46.759 10.3429C46.7313 10.2866 46.7026 10.231 46.673 10.1757C46.2437 9.37854 45.6553 8.74056 44.9092 8.26031C44.1516 7.77249 43.2765 7.52169 42.2802 7.52169C41.1422 7.52169 40.173 7.8273 39.366 8.41705C39.0997 8.61165 38.8609 8.8219 38.6489 9.04736C38.5353 8.9041 38.4084 8.76883 38.2683 8.64153C37.6366 8.06721 36.8851 7.77746 36.0121 7.77746H34.7841C33.8647 7.77746 33.0699 8.11219 32.4034 8.79019C32.1034 9.09547 31.8716 9.42773 31.7082 9.78706C31.1529 9.15653 30.4943 8.62935 29.7321 8.20594C28.6096 7.58231 27.3493 7.26581 25.9487 7.26581H25.7952C24.4126 7.26581 23.1606 7.58188 22.0373 8.20594C21.3783 8.57196 20.7968 9.01565 20.2927 9.53636C20.2502 8.04941 20.0201 6.78231 19.6152 5.73312C19.1509 4.52967 18.4899 3.51252 17.6373 2.67832C16.7733 1.79709 15.7675 1.12783 14.6256 0.674867C13.4994 0.228049 12.2298 0 10.8151 0H10.5592C9.67034 0 8.92039 0.219095 8.30248 0.631069C8.09752 0.767746 7.91155 0.924274 7.7451 1.10087C7.63161 0.988136 7.50928 0.882741 7.378 0.785007C6.80378 0.357175 6.09353 0.12794 5.23787 0.12794H3.65167C2.54153 0.12794 1.66764 0.473571 1.01273 1.11737C0.354046 1.76494 0 2.63754 0 3.75394V18.1322C0 19.1159 0.349622 19.9665 1.05383 20.6819C1.75815 21.3973 2.62319 21.7582 3.65167 21.7582H9.97088C11.8165 21.7582 13.3273 21.5286 14.5059 21.09C15.7255 20.6363 16.7589 19.9904 17.6097 19.1585C18.0845 18.6944 18.5018 18.1651 18.8603 17.5696ZM2.03301 18.1322V3.75394C2.03301 3.25038 2.14725 2.84596 2.43258 2.56052C2.71985 2.27325 3.13333 2.16095 3.65167 2.16095H5.23787C5.71737 2.16095 6.09709 2.27584 6.35286 2.56893C6.63377 2.89072 6.75416 3.31575 6.75416 3.83075C6.75416 4.16031 6.88048 4.39127 7.04531 4.5561C7.21004 4.72082 7.4411 4.84725 7.77066 4.84725C8.10022 4.84725 8.33118 4.72082 8.49601 4.5561C8.66074 4.39127 8.78717 4.16031 8.78717 3.83075C8.78717 3.26462 8.9232 2.8123 9.25254 2.49461C9.58598 2.17282 10.0351 2.03301 10.5849 2.03301H10.8151C11.9566 2.03301 12.9719 2.20485 13.8589 2.55966C14.7315 2.90874 15.5086 3.42546 16.1915 4.10842C16.1939 4.11068 16.1962 4.11306 16.1986 4.11532C16.8624 4.76397 17.3697 5.54585 17.7242 6.45858C18.0928 7.40734 18.2669 8.60475 18.2669 10.0476V11.2501C18.2669 12.9325 18.0922 14.2792 17.7193 15.287C17.3656 16.2429 16.861 17.0467 16.1986 17.694C16.1962 17.6963 16.1939 17.6986 16.1915 17.701C15.5437 18.3488 14.743 18.8426 13.7939 19.1891C12.797 19.5531 11.5217 19.7251 9.97088 19.7251H3.65167C3.20486 19.7251 2.82222 19.5689 2.50388 19.2562C2.18986 18.9477 2.03301 18.5729 2.03301 18.1322Z" fill="#353535"/>
<path fill-rule="evenodd" clip-rule="evenodd" d="M31.4154 14.0635V15.2225C31.3542 16.0226 31.1228 16.7527 30.7163 17.4117C30.2318 18.197 29.5779 18.8165 28.7559 19.2716C27.9249 19.7316 26.9889 19.9567 25.9503 19.9567H25.7968C24.774 19.9567 23.8467 19.731 23.0167 19.2716C22.1947 18.8165 21.5407 18.197 21.0563 17.4117C20.5764 16.6336 20.3406 15.7563 20.3406 14.7819V14.526C20.3406 13.504 20.5745 12.6006 21.0563 11.8195C21.5395 11.0362 22.1916 10.4218 23.0116 9.97524C23.8431 9.52238 24.7722 9.30005 25.7968 9.30005H25.9503C26.9909 9.30005 27.9286 9.52184 28.7611 9.97524C29.581 10.4218 30.2331 11.0362 30.7163 11.8195C31.1241 12.4806 31.3544 13.2294 31.4154 14.0635Z" fill="#F7F7F7"/>
<path fill-rule="evenodd" clip-rule="evenodd" d="M25.1023 14.817L24.3964 14.1113C23.9965 13.7114 23.3471 13.7114 22.9471 14.1113C22.5472 14.5113 22.5472 15.1607 22.9471 15.5606L24.4286 17.042C24.6293 17.2428 24.9043 17.3512 25.188 17.3416C25.4717 17.3319 25.7387 17.205 25.9255 16.9911L28.8731 13.6127C29.245 13.1866 29.2009 12.5387 28.7746 12.1667C28.3485 11.7949 27.7006 11.839 27.3287 12.2652L25.1023 14.817Z" fill="#353535"/>
</svg>
