<?xml version="1.0" encoding="UTF-8" standalone="no"?>
<!DOCTYPE svg PUBLIC "-//W3C//DTD SVG 1.1//EN" "http://www.w3.org/Graphics/SVG/1.1/DTD/svg11.dtd">
<svg width="100%" height="100%" viewBox="0 0 1000 1000" version="1.1" xmlns="http://www.w3.org/2000/svg" xmlns:xlink="http://www.w3.org/1999/xlink" xml:space="preserve" xmlns:serif="http://www.serif.com/" style="fill-rule:evenodd;clip-rule:evenodd;stroke-linejoin:round;stroke-miterlimit:2;">
    <rect x="0" y="0" width="1000" height="1000" style="fill:rgb(238,238,238);"/>
    <g transform="matrix(19.7636,0,0,19.7636,-6074.39,-7385.09)">
        <g>
            <g transform="matrix(0.0505982,0,0,0.0505982,307.353,373.672)">
                <path d="M395.882,560.843C397.115,563.716 398.569,566.502 400.243,569.203C406.505,579.312 414.866,587.276 425.333,593.091C435.746,598.876 447.352,601.806 460.168,601.806L461.591,601.806C474.575,601.806 486.258,598.872 496.663,593.091C503.091,589.52 508.726,585.137 513.568,579.945C515.017,584.69 517.666,588.961 521.523,592.752C527.678,598.8 535.007,601.806 543.495,601.806L555.828,601.806C564.576,601.806 571.924,598.734 577.899,592.653C583.854,586.592 586.832,579.308 586.832,570.801C586.832,567.746 585.661,565.604 584.133,564.077C582.606,562.549 580.464,561.378 577.409,561.378C574.354,561.378 572.213,562.549 570.685,564.077C569.158,565.604 567.986,567.746 567.986,570.801C567.986,574.157 566.812,577.034 564.462,579.431C562.135,581.806 559.247,582.96 555.828,582.96L543.495,582.96C540.032,582.96 537.09,581.779 534.685,579.374C532.302,576.991 531.099,574.137 531.099,570.801L531.099,539.738C531.202,538.174 531.253,536.592 531.253,534.989C531.253,534.989 531.253,532.618 531.253,532.618C531.253,530.955 531.202,529.316 531.099,527.703L531.099,501.787C531.099,498.329 532.378,495.309 534.847,492.691C537.212,490.184 540.09,488.916 543.495,488.916C543.495,488.916 554.879,488.916 554.879,488.916C558.342,488.916 561.284,490.097 563.689,492.502C566.136,494.95 567.275,498.067 567.275,501.787L567.275,509.85C567.275,512.905 568.446,515.047 569.974,516.574C571.501,518.102 573.643,519.273 576.698,519.273C579.753,519.273 581.895,518.102 583.422,516.574C584.874,515.122 585.999,513.115 586.112,510.3C586.505,506.094 587.787,502.174 589.961,498.551C592.117,494.958 595.131,492.074 598.963,489.858C602.893,487.586 607.581,486.545 612.984,486.545C618.468,486.545 623.3,487.785 627.444,490.405C631.611,493.04 634.844,496.638 637.173,501.172C639.611,505.92 640.795,511.19 640.795,516.965C640.795,516.965 640.795,571.038 640.795,571.038C640.795,574.331 639.619,577.13 637.267,579.436C634.848,581.807 631.883,582.96 628.399,582.96C625.475,582.96 623.41,583.988 621.948,585.241C620.056,586.863 618.739,589.14 618.739,592.383C618.739,595.626 620.056,597.903 621.948,599.524C623.41,600.777 625.475,601.806 628.399,601.806C637.092,601.806 644.447,598.808 650.489,592.872C654.473,588.958 657.156,584.497 658.539,579.488C663.692,585.299 669.867,590.07 677.068,593.796C687.598,599.245 699.583,602.027 713.048,602.027C728.229,602.027 741.345,599.163 752.431,593.605C764.356,587.627 772.572,578.148 777.033,565.126C777.749,563.342 778.004,561.145 777.156,558.554C775.943,554.85 773.323,552.355 768.473,552.355C764.772,552.355 761.832,553.98 759.982,557.748C759.816,558.085 759.674,558.434 759.557,558.791C756.847,567.073 751.65,573.103 743.949,576.867C735.224,581.131 724.913,583.183 713.048,583.183C702.9,583.183 693.803,581.175 685.781,577.056C678.047,573.084 671.957,567.439 667.528,560.102C663.042,552.67 660.885,543.887 660.885,533.796C660.885,524.653 662.966,516.322 667.187,508.817C671.385,501.354 677.331,495.4 684.993,490.922C692.785,486.369 701.916,484.172 712.35,484.172C712.35,484.172 715.843,484.172 715.843,484.172C725.94,484.172 734.315,486.074 740.891,490.2C747.309,494.227 752.173,499.311 755.415,505.516C758.553,511.523 760.209,517.645 760.315,523.899L703.733,523.899C700.833,523.899 698.784,524.935 697.334,526.201C695.481,527.818 694.185,530.087 694.185,533.321C694.185,536.556 695.481,538.824 697.334,540.442C698.784,541.708 700.833,542.744 703.733,542.744C703.733,542.744 760.788,542.744 760.788,542.744C765.715,542.744 769.96,541.008 773.518,537.524C777.14,533.978 778.953,529.653 778.953,524.547C778.953,515.048 776.611,505.768 771.857,496.726C767.108,487.694 760.066,480.177 750.658,474.247C741.382,468.399 729.802,465.327 715.843,465.327L712.35,465.327C698.425,465.327 686.215,468.457 675.684,474.572C667.021,479.603 659.966,486.035 654.503,493.852C654.246,493.33 653.98,492.814 653.705,492.302C649.726,484.912 644.271,478.998 637.355,474.546C630.332,470.024 622.22,467.699 612.984,467.699C602.435,467.699 593.451,470.532 585.97,475.999C583.501,477.803 581.287,479.752 579.322,481.842C578.269,480.514 577.093,479.26 575.794,478.08C569.938,472.756 562.972,470.07 554.879,470.07C554.879,470.07 543.495,470.07 543.495,470.07C534.973,470.07 527.605,473.173 521.426,479.458C518.645,482.288 516.497,485.368 514.982,488.699C509.834,482.854 503.729,477.967 496.663,474.042C486.258,468.261 474.575,465.327 461.591,465.327L460.168,465.327C447.352,465.327 435.746,468.257 425.333,474.042C419.224,477.435 413.833,481.548 409.16,486.375C408.766,472.591 406.633,460.845 402.88,451.119C398.576,439.963 392.448,430.534 384.545,422.801C376.535,414.632 367.212,408.428 356.626,404.229C346.186,400.087 334.417,397.973 321.303,397.973C321.303,397.973 318.931,397.973 318.931,397.973C310.691,397.973 303.739,400.004 298.011,403.823C296.111,405.09 294.387,406.541 292.844,408.178C291.792,407.133 290.658,406.156 289.441,405.25C284.118,401.284 277.534,399.159 269.602,399.159L254.898,399.159C244.607,399.159 236.506,402.363 230.435,408.331C224.329,414.334 221.047,422.423 221.047,432.772C221.047,432.772 221.047,566.058 221.047,566.058C221.047,575.177 224.288,583.062 230.816,589.694C237.345,596.326 245.364,599.671 254.898,599.671L313.477,599.671C330.586,599.671 344.591,597.543 355.517,593.477C366.822,589.271 376.402,583.284 384.289,575.572C388.69,571.27 392.559,566.363 395.882,560.843ZM239.893,566.058L239.893,432.772C239.893,428.104 240.952,424.355 243.597,421.709C246.26,419.046 250.093,418.005 254.898,418.005C254.898,418.005 269.602,418.005 269.602,418.005C274.047,418.005 277.567,419.07 279.938,421.787C282.542,424.77 283.658,428.71 283.658,433.484C283.658,436.539 284.829,438.68 286.357,440.208C287.884,441.735 290.026,442.907 293.081,442.907C296.136,442.907 298.277,441.735 299.805,440.208C301.332,438.68 302.504,436.539 302.504,433.484C302.504,428.236 303.765,424.043 306.818,421.098C309.909,418.115 314.072,416.819 319.169,416.819C319.169,416.819 321.303,416.819 321.303,416.819C331.885,416.819 341.296,418.412 349.519,421.701C357.608,424.937 364.812,429.727 371.142,436.058C371.164,436.079 371.186,436.101 371.208,436.122C377.361,442.135 382.064,449.383 385.35,457.844C388.767,466.639 390.381,477.739 390.381,491.114L390.381,502.261C390.381,517.857 388.762,530.341 385.305,539.683C382.026,548.545 377.348,555.996 371.208,561.996C371.186,562.018 371.164,562.039 371.142,562.061C365.137,568.066 357.715,572.644 348.916,575.856C339.675,579.23 327.853,580.825 313.477,580.825C313.477,580.825 254.898,580.825 254.898,580.825C250.756,580.825 247.209,579.377 244.258,576.478C241.347,573.618 239.893,570.144 239.893,566.058Z" style="fill:rgb(34,40,49);"/>
            </g>
            <g transform="matrix(0.0505982,0,0,0.0505982,308.758,373.673)">
                <path d="M484.5,528.322L484.5,539.066C483.932,546.483 481.787,553.251 478.019,559.36C473.528,566.64 467.466,572.382 459.846,576.601C452.143,580.865 443.466,582.952 433.838,582.952C433.838,582.952 432.415,582.952 432.415,582.952C422.934,582.952 414.338,580.86 406.644,576.601C399.024,572.382 392.961,566.64 388.471,559.36C384.022,552.147 381.836,544.014 381.836,534.982L381.836,532.61C381.836,523.136 384.004,514.761 388.471,507.52C392.95,500.259 398.995,494.564 406.596,490.424C414.304,486.226 422.917,484.165 432.415,484.165L433.838,484.165C443.484,484.165 452.177,486.221 459.894,490.424C467.495,494.564 473.54,500.259 478.019,507.52C481.799,513.649 483.934,520.59 484.5,528.322Z" style="fill:rgb(0,146,202);"/>
            </g>
            <g transform="matrix(0.0505982,0,0,0.0505982,308.758,373.673)">
                <path d="M425.976,535.309L419.433,528.767C415.726,525.06 409.706,525.06 405.998,528.767C402.291,532.475 402.291,538.495 405.998,542.202L419.731,555.935C421.592,557.796 424.141,558.801 426.771,558.712C429.401,558.622 431.876,557.446 433.607,555.463C433.607,555.463 460.932,524.145 460.932,524.145C464.379,520.195 463.97,514.189 460.019,510.741C456.069,507.294 450.063,507.703 446.615,511.654L425.976,535.309Z" style="fill:rgb(238,238,238);"/>
            </g>
        </g>
    </g>
</svg>
